<svg width="101" height="101" viewBox="0 0 101 101" fill="none" xmlns="http://www.w3.org/2000/svg">
<path d="M92.882 74.4625C85.8648 87.1916 74.0278 96.5512 60.044 99.7854C54.4647 101.075 48.6728 101.325 43.0226 100.597C37.3521 99.879 31.8842 98.0279 26.7909 95.4696C21.7179 92.8385 17.0904 89.2923 13.192 85.0597C12.2503 84.0405 11.3693 82.9902 10.5289 81.9086C-2.86752 64.5622 -3.67758 38.9169 9.2328 20.7801C12.5743 16.0899 16.7259 12.0133 21.404 8.75821C26.0821 5.49276 31.307 3.04886 36.7952 1.59293C42.2834 0.13699 48.0146 -0.330989 53.6648 0.230586C53.8774 0.251385 54.0293 0.438577 53.9989 0.656968C53.9888 0.83376 53.847 0.968954 53.685 1.00015L53.5838 1.02095C42.1619 2.94487 32.5829 8.65422 26.2846 16.1627C23.1153 19.8961 20.7053 23.9727 19.1763 28.2054C13.6983 43.3887 19.146 65.9037 35.9345 71.1347C48.7133 75.1177 63.5273 67.2869 63.1628 52.5611C63.0514 48.0165 61.0364 43.7943 59.4365 39.5617C58.4847 37.0346 57.6543 34.4659 56.9759 31.8452C56.2874 29.2349 55.7406 26.4894 56.2469 23.8272C58.9403 9.69417 76.2757 6.44951 86.5939 13.0636C86.9989 13.3236 87.3938 13.594 87.7786 13.8748C97.3778 20.8217 101.297 33.6131 100.983 45.2502C100.729 55.4314 97.7525 65.6229 92.882 74.4625Z" fill="url(#paint0_linear_49_9)"/>
<path d="M56.5697 35.5285C55.7658 33.9536 55.0323 32.3263 54.5299 30.5624C49.1039 11.6216 74.2545 4.09363 86.7042 12.2201C87.1061 12.4826 87.498 12.7556 87.8798 13.039C97.4055 20.0526 101.294 32.9667 100.983 44.7154C100.721 54.9837 97.7773 65.2731 92.9441 74.1975C85.9807 87.0591 74.2344 96.5085 60.3578 99.7738C54.8213 101.076 49.0737 101.328 43.4668 100.593C37.8398 99.8683 32.4138 97.9994 27.3596 95.4166C22.3254 92.7602 17.7334 89.18 13.8648 84.9068C12.9304 83.8778 12.0562 82.8174 11.2222 81.7255C12.0059 82.1244 12.7997 82.4919 13.6036 82.8384C17.6229 84.5708 21.8833 85.6942 26.204 86.2297C36.9656 87.5736 48.3301 85.0118 56.0874 76.6648C63.6335 68.5488 64.568 56.8001 61.7043 46.3323C60.6191 42.3636 58.3884 39.0773 56.5697 35.5285Z" fill="url(#paint1_linear_49_9)"/>
<defs>
<linearGradient id="paint0_linear_49_9" x1="57.2972" y1="61.3595" x2="61.9032" y2="69.8805" gradientUnits="userSpaceOnUse">
<stop stop-color="#067EFB"/>
<stop offset="0.248" stop-color="#067EFB"/>
<stop offset="1" stop-color="#134077"/>
</linearGradient>
<linearGradient id="paint1_linear_49_9" x1="94.5828" y1="99.1485" x2="-24.3346" y2="20.5449" gradientUnits="userSpaceOnUse">
<stop stop-color="#134077"/>
<stop offset="1" stop-color="#050C14"/>
</linearGradient>
</defs>
</svg>
