<svg width="118" height="118" viewBox="0 0 118 118" fill="none" xmlns="http://www.w3.org/2000/svg">
<rect width="118" height="118" rx="12.8906" fill="url(#paint0_linear_24_95)"/>
<path d="M85.305 73.377C80.9497 81.0746 73.6028 86.7346 64.9236 88.6904C61.4607 89.4702 57.8658 89.6212 54.3589 89.181C50.8395 88.747 47.4457 87.6276 44.2845 86.0806C41.1358 84.4895 38.2637 82.345 35.8441 79.7854C35.2596 79.1691 34.7128 78.5339 34.1912 77.8799C25.8765 67.39 25.3737 51.8817 33.3867 40.9139C35.4607 38.0776 38.0375 35.6124 40.941 33.644C43.8446 31.6693 47.0875 30.1914 50.4938 29.3109C53.9002 28.4305 57.4573 28.1475 60.9642 28.4871C61.0962 28.4997 61.1905 28.6129 61.1716 28.7449C61.1653 28.8519 61.0773 28.9336 60.9768 28.9525L60.9139 28.9651C53.8247 30.1285 47.8794 33.5811 43.9703 38.1216C42.0031 40.3793 40.5074 42.8446 39.5584 45.4042C36.1583 54.5859 39.5395 68.2013 49.9596 71.3646C57.891 73.7732 67.0855 69.0377 66.8593 60.1327C66.7902 57.3844 65.5395 54.8312 64.5465 52.2716C63.9557 50.7434 63.4404 49.1901 63.0193 47.6053C62.592 46.0268 62.2526 44.3665 62.5668 42.7565C64.2386 34.21 74.998 32.2478 81.4022 36.2476C81.6536 36.4048 81.8987 36.5683 82.1375 36.7381C88.0954 40.9391 90.5276 48.6744 90.3328 55.7116C90.1757 61.8684 88.328 68.0315 85.305 73.377Z" fill="url(#paint1_linear_24_95)"/>
<path d="M62.5543 50.2088C62.0516 49.2655 61.5928 48.2907 61.2785 47.2341C57.8848 35.889 73.6155 31.3799 81.4023 36.2475C81.6537 36.4047 81.8988 36.5682 82.1376 36.738C88.0955 40.939 90.5277 48.6743 90.3329 55.7115C90.1695 61.8621 88.3281 68.0251 85.3051 73.3707C80.9498 81.0745 73.6029 86.7345 64.9237 88.6904C61.4608 89.4702 57.8659 89.6211 54.359 89.1809C50.8396 88.747 47.4458 87.6275 44.2846 86.0805C41.1359 84.4894 38.2638 82.3449 35.8442 79.7853C35.2597 79.169 34.7129 78.5338 34.1913 77.8798C34.6815 78.1188 35.178 78.3389 35.6808 78.5464C38.1947 79.5841 40.8594 80.257 43.5618 80.5777C50.2928 81.3827 57.4008 79.8482 62.2527 74.8486C66.9725 69.9873 67.557 62.95 65.7658 56.68C65.0871 54.3028 63.6919 52.3344 62.5543 50.2088Z" fill="url(#paint2_linear_24_95)"/>
<defs>
<linearGradient id="paint0_linear_24_95" x1="115.611" y1="2.84815" x2="-21.9039" y2="64.9437" gradientUnits="userSpaceOnUse">
<stop offset="0.426601" stop-color="#050C14"/>
<stop offset="1" stop-color="#134077"/>
</linearGradient>
<linearGradient id="paint1_linear_24_95" x1="63.2187" y1="65.4533" x2="65.964" y2="70.6659" gradientUnits="userSpaceOnUse">
<stop stop-color="#FCD647"/>
<stop offset="0.248" stop-color="#FDCC43"/>
<stop offset="1" stop-color="#FFAF38"/>
</linearGradient>
<linearGradient id="paint2_linear_24_95" x1="67.3696" y1="68.7018" x2="75.7868" y2="79.6736" gradientUnits="userSpaceOnUse">
<stop stop-color="#FCD647"/>
<stop offset="1" stop-color="#F29B1F"/>
</linearGradient>
</defs>
</svg>
