<svg width="442" height="101" viewBox="0 0 442 101" fill="none" xmlns="http://www.w3.org/2000/svg">
<path d="M117.056 77.3343L127.057 39.4025C129.767 29.0695 138.586 23.8898 153.514 23.8632H174.99C175.973 23.8632 176.783 24.2351 177.42 24.9788C178.085 25.7226 178.417 26.5859 178.417 27.5687V77.3343C178.417 78.3703 178.045 79.2468 177.301 79.964C176.557 80.6547 175.667 81 174.631 81H167.141C166.052 81 165.148 80.6547 164.431 79.964C163.741 79.2468 163.395 78.3437 163.395 77.2546V67.2139H135.066L132.396 77.2546C132.131 78.3437 131.533 79.2468 130.603 79.964C129.674 80.6547 128.691 81 127.655 81H119.806C118.77 81 118.026 80.7078 117.574 80.1234C117.123 79.5125 116.897 78.9812 116.897 78.5297C116.923 78.0781 116.977 77.6796 117.056 77.3343ZM138.014 55.9379H163.395V35.1391H152.04C149.49 35.1391 147.258 35.8696 145.346 37.3306C143.46 38.765 142.185 40.7041 141.521 43.1479L138.014 55.9379ZM185.11 27.2101C184.978 26.8914 184.911 26.5328 184.911 26.1343C184.911 25.7093 185.137 25.2312 185.589 24.6999C186.067 24.1421 186.771 23.8632 187.7 23.8632H196.426C197.462 23.8632 198.418 24.2218 199.295 24.939C200.172 25.6562 200.796 26.5593 201.168 27.6484L211.687 59.2051L221.409 27.6484C222.179 25.1249 223.759 23.8632 226.15 23.8632H233.481C235.872 23.8632 237.453 25.1249 238.223 27.6484L247.945 59.2051L258.464 27.6484C258.836 26.5593 259.46 25.6562 260.337 24.939C261.213 24.2218 262.169 23.8632 263.205 23.8632H271.931C272.834 23.8632 273.512 24.1421 273.963 24.6999C274.441 25.2312 274.681 25.7093 274.681 26.1343C274.681 26.5328 274.627 26.8914 274.521 27.2101L256.751 76.9359C255.768 79.6453 253.855 81 251.013 81H245.236C242.287 81 240.388 79.6453 239.538 76.9359L229.816 46.2557L220.094 76.9359C219.217 79.6453 217.318 81 214.396 81H208.579C205.763 81 203.864 79.6453 202.881 76.9359L185.11 27.2101ZM281.215 77.3343V27.6484C281.215 26.6125 281.587 25.7226 282.331 24.9788C283.074 24.2351 283.964 23.8632 285 23.8632H292.411C293.5 23.8632 294.403 24.2351 295.121 24.9788C295.864 25.7226 296.236 26.6125 296.236 27.6484V77.2546C296.236 78.2906 295.851 79.1804 295.081 79.9242C294.337 80.6414 293.447 81 292.411 81H285C283.964 81 283.074 80.6547 282.331 79.964C281.587 79.2468 281.215 78.3703 281.215 77.3343ZM360.386 75.103C354.967 79.8578 346.998 82.2352 336.479 82.2352C325.987 82.2352 318.018 79.8578 312.573 75.103C307.127 70.3217 304.404 62.7646 304.404 52.4316C304.404 42.0986 307.127 34.5548 312.573 29.8C318.018 25.0452 325.987 22.6679 336.479 22.6679C346.998 22.6679 354.967 25.0452 360.386 29.8C365.831 34.5548 368.554 42.0986 368.554 52.4316C368.554 62.7646 365.831 70.3217 360.386 75.103ZM349.508 38.2072C346.825 35.0196 342.482 33.4258 336.479 33.4258C330.502 33.4258 326.159 35.0196 323.45 38.2072C320.767 41.3947 319.426 46.1495 319.426 52.4714C319.426 58.7669 320.767 63.5083 323.45 66.6959C326.159 69.8569 330.502 71.4374 336.479 71.4374C342.482 71.4374 346.825 69.8569 349.508 66.6959C352.191 63.5083 353.533 58.7669 353.533 52.4714C353.533 46.1495 352.191 41.3947 349.508 38.2072ZM376.762 77.2546V27.6484C376.762 26.6125 377.134 25.7226 377.877 24.9788C378.621 24.2351 379.538 23.8632 380.627 23.8632H388.038C389.074 23.8632 389.95 24.2351 390.667 24.9788C391.411 25.7226 391.783 26.6125 391.783 27.6484V45.5784H419.196V27.6484C419.196 26.6125 419.568 25.7226 420.312 24.9788C421.055 24.2351 421.945 23.8632 422.981 23.8632H430.392C431.481 23.8632 432.385 24.2351 433.102 24.9788C433.845 25.7226 434.217 26.6125 434.217 27.6484V77.2546C434.217 78.2906 433.832 79.1804 433.062 79.9242C432.318 80.6414 431.428 81 430.392 81H422.981C421.945 81 421.055 80.6547 420.312 79.964C419.568 79.2468 419.196 78.3703 419.196 77.3343V56.8543H391.783V77.3343C391.783 78.3703 391.411 79.2468 390.667 79.964C389.95 80.6547 389.074 81 388.038 81H380.627C379.591 81 378.688 80.6414 377.917 79.9242C377.147 79.1804 376.762 78.2906 376.762 77.2546Z" fill="url(#paint0_linear_49_4)"/>
<path d="M92.882 74.4625C85.8648 87.1916 74.0278 96.5512 60.044 99.7854C54.4647 101.075 48.6728 101.325 43.0226 100.597C37.3521 99.879 31.8842 98.0279 26.7909 95.4696C21.7179 92.8385 17.0904 89.2923 13.192 85.0597C12.2503 84.0405 11.3693 82.9902 10.5289 81.9086C-2.86752 64.5622 -3.67758 38.9169 9.2328 20.7801C12.5743 16.0899 16.7259 12.0133 21.404 8.75821C26.0821 5.49276 31.307 3.04886 36.7952 1.59293C42.2834 0.13699 48.0146 -0.330989 53.6648 0.230586C53.8774 0.251385 54.0293 0.438577 53.9989 0.656968C53.9888 0.83376 53.847 0.968954 53.685 1.00015L53.5838 1.02095C42.1619 2.94487 32.5829 8.65422 26.2846 16.1627C23.1153 19.8961 20.7053 23.9727 19.1763 28.2054C13.6983 43.3887 19.146 65.9037 35.9345 71.1347C48.7133 75.1177 63.5273 67.2869 63.1628 52.5611C63.0514 48.0165 61.0364 43.7943 59.4365 39.5617C58.4847 37.0346 57.6543 34.4659 56.9759 31.8452C56.2874 29.2349 55.7406 26.4894 56.2469 23.8272C58.9403 9.69417 76.2757 6.44951 86.5939 13.0636C86.9989 13.3236 87.3938 13.594 87.7786 13.8748C97.3778 20.8217 101.297 33.6131 100.983 45.2502C100.729 55.4314 97.7525 65.6229 92.882 74.4625Z" fill="url(#paint1_linear_49_4)"/>
<path d="M56.5697 35.5285C55.7658 33.9536 55.0323 32.3263 54.5299 30.5624C49.1039 11.6216 74.2545 4.09363 86.7042 12.2201C87.1061 12.4826 87.498 12.7556 87.8798 13.039C97.4055 20.0526 101.294 32.9667 100.983 44.7154C100.721 54.9837 97.7773 65.2731 92.9441 74.1975C85.9807 87.0591 74.2344 96.5085 60.3578 99.7738C54.8213 101.076 49.0737 101.328 43.4668 100.593C37.8398 99.8683 32.4138 97.9994 27.3596 95.4166C22.3254 92.7602 17.7334 89.18 13.8648 84.9068C12.9304 83.8778 12.0562 82.8174 11.2222 81.7255C12.0059 82.1244 12.7997 82.4919 13.6036 82.8384C17.6229 84.5708 21.8833 85.6942 26.204 86.2297C36.9656 87.5736 48.3301 85.0118 56.0874 76.6648C63.6335 68.5488 64.568 56.8001 61.7043 46.3323C60.6191 42.3636 58.3884 39.0773 56.5697 35.5285Z" fill="url(#paint2_linear_49_4)"/>
<defs>
<linearGradient id="paint0_linear_49_4" x1="116.06" y1="40.8006" x2="441.19" y2="40.8006" gradientUnits="userSpaceOnUse">
<stop stop-color="#134077"/>
<stop offset="1" stop-color="#067EFB"/>
</linearGradient>
<linearGradient id="paint1_linear_49_4" x1="57.2972" y1="61.3595" x2="61.9032" y2="69.8805" gradientUnits="userSpaceOnUse">
<stop stop-color="#067EFB"/>
<stop offset="0.248" stop-color="#067EFB"/>
<stop offset="1" stop-color="#134077"/>
</linearGradient>
<linearGradient id="paint2_linear_49_4" x1="94.5828" y1="99.1485" x2="-24.3346" y2="20.5449" gradientUnits="userSpaceOnUse">
<stop stop-color="#134077"/>
<stop offset="1" stop-color="#050C14"/>
</linearGradient>
</defs>
</svg>
